<?xml version="1.0" standalone="no"?>
<!DOCTYPE svg PUBLIC "-//W3C//DTD SVG 20010904//EN"
 "http://www.w3.org/TR/2001/REC-SVG-20010904/DTD/svg10.dtd">
<svg version="1.0" xmlns="http://www.w3.org/2000/svg"
 width="96.000000pt" height="96.000000pt" viewBox="0 0 96.000000 96.000000"
 preserveAspectRatio="xMidYMid meet">

<g transform="translate(0.000000,96.000000) scale(0.100000,-0.100000)"
fill="#000000" stroke="none">
<path d="M502 852 c-9 -9 -51 -83 -92 -163 l-74 -145 -39 0 -39 1 -99 -170
c-55 -93 -106 -175 -114 -181 -8 -6 -15 -14 -15 -18 0 -3 203 -6 450 -6 248 0
450 3 450 6 0 4 -6 12 -14 18 -8 6 -87 153 -176 326 -147 287 -185 350 -211
350 -5 0 -17 -8 -27 -18z m215 -339 l165 -323 -179 0 -178 1 -89 156 -89 156
84 169 c68 137 87 168 103 166 14 -2 63 -90 183 -325z m-370 -59 c23 -38 42
-72 42 -76 1 -5 -12 -8 -29 -8 -16 0 -30 -4 -30 -10 0 -5 18 -10 40 -10 22 0
40 -2 40 -4 0 -2 3 -11 6 -20 4 -12 0 -16 -15 -16 -12 0 -21 -4 -21 -10 0 -5
13 -10 30 -10 19 0 33 -7 40 -20 9 -18 8 -20 -15 -20 -14 0 -25 -4 -25 -10 0
-5 16 -10 35 -10 19 0 35 -2 35 -4 0 -2 3 -11 6 -20 5 -14 -16 -16 -195 -16
-115 0 -201 4 -201 9 0 10 164 297 182 319 17 21 31 9 75 -64z"/>
<path d="M200 105 c0 -13 38 -15 280 -15 242 0 280 2 280 15 0 13 -38 15 -280
15 -242 0 -280 -2 -280 -15z"/>
</g>
</svg>
