<?xml version="1.0" standalone="no"?>
<!DOCTYPE svg PUBLIC "-//W3C//DTD SVG 20010904//EN"
 "http://www.w3.org/TR/2001/REC-SVG-20010904/DTD/svg10.dtd">
<svg version="1.0" xmlns="http://www.w3.org/2000/svg"
 width="860.000000pt" height="427.000000pt" viewBox="0 0 860.000000 427.000000"
 preserveAspectRatio="xMidYMid meet">

<g transform="translate(0.000000,427.000000) scale(0.100000,-0.100000)"
fill="#000000" stroke="none">
<path d="M4953 3831 c-69 -56 -476 -469 -773 -786 -140 -148 -295 -313 -345
-365 -50 -52 -120 -125 -155 -162 -50 -54 -66 -66 -77 -57 -7 7 -109 127 -225
268 -363 438 -546 641 -578 641 -33 0 -225 -213 -600 -665 -123 -148 -334
-403 -469 -565 -743 -894 -1294 -1568 -1395 -1708 -39 -54 -42 -76 -13 -115
12 -18 45 -19 558 -27 1559 -24 6751 -19 7261 7 l130 6 15 33 c20 41 21 38
-117 194 -319 359 -592 650 -2449 2620 -363 385 -637 664 -688 698 l-31 22
-49 -39z m225 -398 c179 -188 269 -286 347 -378 58 -67 58 -68 -51 -176 l-73
-73 -168 166 c-93 91 -183 173 -202 182 l-32 17 -57 -42 c-31 -24 -121 -106
-200 -183 l-143 -140 -91 91 -91 92 56 70 c94 115 511 551 529 551 3 0 82 -80
176 -177z m-2295 -425 c95 -105 357 -419 364 -436 7 -16 -124 -152 -146 -152
-8 0 -60 44 -115 98 -56 54 -120 111 -143 126 -40 27 -42 27 -73 11 -17 -9
-82 -65 -144 -126 -62 -60 -120 -109 -127 -109 -22 0 -153 136 -146 152 14 35
431 518 447 518 5 0 42 -37 83 -82z m2279 -236 c84 -81 171 -161 192 -177 l38
-29 35 19 c19 11 90 70 157 133 96 89 126 112 146 110 25 -3 86 -67 1612
-1688 l606 -645 -311 -6 c-429 -9 -6085 -11 -6594 -2 -321 5 -411 9 -405 18
12 22 1454 1757 1514 1822 54 60 64 66 86 54 11 -6 62 -49 113 -97 119 -109
139 -120 179 -99 17 9 84 68 151 131 l120 116 119 -115 c123 -120 168 -152
200 -142 10 3 69 53 131 111 61 57 117 104 124 104 17 0 67 -56 320 -355 231
-274 395 -450 427 -461 20 -6 63 17 85 45 38 50 7 102 -268 437 -68 84 -139
172 -156 197 l-33 45 137 148 c164 179 381 404 390 404 4 0 58 -51 122 -113
64 -63 135 -126 159 -142 39 -26 45 -27 69 -14 14 8 103 87 197 176 94 90 174
163 177 163 3 0 76 -67 161 -148z"/>
</g>
</svg>
