<svg xmlns="http://www.w3.org/2000/svg" version="1.0" preserveAspectRatio="xMidYMid meet" viewBox="58.44 393.24 627.56 265.68">

<g transform="translate(0.000000,1052.000000) scale(0.100000,-0.100000)" fill="#000000" stroke="none">
<path d="M4562 6583 c-7 -3 -168 -185 -358 -405 l-346 -399 -31 26 c-18 14 -78 48 -135 75 -56 28 -115 59 -130 69 -15 11 -48 23 -73 26 -40 6 -49 3 -78 -21 -18 -15 -84 -96 -148 -181 l-115 -154 -31 24 c-18 13 -63 41 -100 61 -37 21 -74 44 -81 52 -22 22 -68 -41 -224 -311 -41 -72 -195 -289 -211 -300 -5 -3 -25 23 -43 57 -56 105 -261 305 -491 477 -78 59 -100 71 -132 71 -49 0 -83 -35 -215 -221 -148 -207 -306 -364 -615 -609 -143 -113 -215 -178 -215 -195 0 -6 -32 -67 -71 -135 -81 -142 -141 -262 -134 -268 2 -3 54 43 115 101 69 66 122 108 140 112 16 4 46 18 67 32 21 14 50 30 66 35 19 7 47 40 93 109 86 131 225 276 304 318 33 18 60 28 60 23 0 -5 -7 -40 -14 -78 -8 -38 -18 -86 -21 -108 -4 -21 -8 -36 -10 -34 -2 2 -9 35 -15 73 -6 39 -15 74 -20 79 -27 27 -218 -195 -264 -306 l-30 -71 -122 -59 c-89 -42 -135 -71 -168 -105 -53 -53 -74 -109 -51 -132 13 -13 22 -12 72 13 32 15 117 62 188 103 183 106 187 107 49 9 -101 -71 -177 -146 -149 -146 21 0 172 23 237 35 34 6 38 5 43 -18 9 -33 28 -40 76 -27 66 18 96 80 163 333 19 73 44 197 56 277 12 80 25 149 30 154 22 22 18 -30 -14 -190 -19 -95 -40 -221 -47 -280 -9 -84 -19 -122 -41 -167 -30 -60 -51 -187 -31 -187 5 0 40 34 78 76 37 41 71 72 75 67 4 -4 3 -44 -1 -88 -13 -132 -11 -175 6 -175 21 0 31 31 40 120 16 178 62 310 161 463 37 57 39 81 6 61 -9 -6 -42 -41 -72 -79 -50 -62 -55 -66 -58 -44 -2 14 6 133 17 265 18 220 18 311 -2 331 -3 3 4 26 17 52 13 25 36 75 50 110 51 126 32 122 -71 -16 -107 -144 -164 -205 -237 -257 -147 -104 -150 -100 -19 31 141 140 209 224 357 441 79 115 100 141 112 132 7 -7 16 -22 20 -33 3 -12 11 -28 17 -35 5 -7 10 -77 10 -165 l1 -152 5 140 6 140 32 -115 c18 -63 46 -173 63 -245 40 -174 59 -237 71 -230 11 7 6 56 -22 224 -10 63 -17 116 -16 118 6 5 101 -225 163 -396 125 -341 264 -822 264 -915 0 -38 -1 -39 -19 -22 -11 10 -56 72 -102 139 -45 67 -121 174 -168 237 -87 118 -227 270 -249 270 -7 0 -12 -13 -12 -28 0 -78 -49 -186 -158 -349 -41 -62 -72 -118 -69 -126 6 -15 78 -27 170 -27 100 0 146 -17 202 -76 28 -29 70 -62 95 -73 52 -23 152 -41 227 -41 29 0 64 -5 79 -12 23 -11 28 -10 41 7 38 51 -16 323 -136 680 -34 99 -61 182 -61 186 0 4 20 4 45 1 34 -3 45 -1 45 9 0 8 -16 70 -35 138 -36 127 -45 198 -24 185 6 -4 54 -72 106 -153 52 -80 104 -155 114 -166 10 -11 61 -102 112 -201 84 -160 202 -364 212 -364 1 0 -47 99 -108 220 -61 121 -107 223 -104 227 15 14 66 -38 199 -202 76 -93 147 -178 159 -189 21 -21 21 -21 -1 24 -13 25 -104 173 -203 330 -100 157 -200 318 -224 357 l-42 72 105 106 106 106 36 -23 c56 -35 281 -205 351 -266 35 -31 85 -86 112 -122 26 -36 60 -72 75 -80 39 -21 77 -77 114 -171 34 -82 84 -149 114 -149 10 0 46 46 91 116 42 64 80 112 85 109 10 -6 4 43 -7 54 -2 3 -43 -35 -92 -83 -80 -79 -91 -87 -110 -77 -25 14 -41 44 -70 133 -22 65 -61 118 -87 118 -27 0 -95 74 -150 163 -77 124 -174 299 -174 315 0 6 9 12 20 12 27 0 25 16 -4 36 -14 8 -32 34 -41 57 -16 42 -36 187 -26 187 3 -1 22 -21 41 -46 45 -58 181 -189 223 -214 17 -11 42 -20 54 -20 36 0 105 -116 96 -161 -4 -23 -1 -27 26 -31 16 -2 37 0 46 4 14 8 12 16 -15 66 -17 31 -75 118 -130 192 -63 86 -99 144 -99 160 0 39 173 258 226 286 l42 22 27 -82 c34 -103 58 -135 152 -199 133 -92 142 -102 142 -161 0 -33 -14 -95 -41 -177 -46 -141 -46 -159 2 -210 36 -38 49 -27 25 20 -19 35 -21 88 -5 128 l10 28 32 -60 c18 -32 53 -82 80 -111 33 -37 76 -109 145 -246 117 -232 196 -356 253 -398 45 -32 69 -38 69 -16 0 39 -126 292 -216 434 -19 28 -32 52 -29 52 3 0 56 -34 119 -75 63 -41 121 -75 129 -75 20 0 68 67 108 149 16 35 59 109 93 165 35 55 164 265 286 466 123 201 231 376 240 390 10 14 34 57 55 95 34 64 111 175 122 175 3 0 -28 -62 -69 -137 -162 -304 -397 -828 -379 -846 11 -11 103 75 149 138 14 20 4 -14 -29 -95 -86 -215 -86 -250 1 -250 66 0 98 -14 106 -45 12 -48 26 -10 39 108 8 66 21 130 31 149 10 18 32 85 49 148 l32 114 6 -129 c5 -121 3 -134 -19 -189 -24 -59 -24 -76 0 -76 14 0 36 41 36 68 0 9 11 -5 24 -32 44 -89 116 -147 157 -126 25 14 24 38 -3 67 -19 21 -22 33 -20 91 5 119 59 294 95 308 8 3 31 -6 52 -20 46 -32 50 -32 80 -1 17 16 25 36 26 62 3 111 -9 147 -105 311 -48 83 -72 138 -90 205 -13 51 -26 97 -28 102 -1 6 1 12 7 15 5 3 24 -42 41 -100 45 -152 54 -166 130 -200 70 -32 78 -48 42 -87 -20 -22 -21 -25 -5 -40 13 -14 21 -14 42 -5 14 6 30 23 37 36 17 38 -6 80 -85 161 l-69 70 7 128 c7 125 6 129 -15 144 -40 28 -92 173 -62 173 9 0 112 -59 112 -64 0 -2 -13 1 -30 7 -16 6 -32 8 -35 5 -4 -3 10 -38 31 -77 35 -68 37 -77 43 -195 6 -123 6 -124 44 -179 21 -30 73 -84 116 -121 100 -84 200 -190 216 -230 7 -17 16 -60 20 -95 11 -95 25 -55 25 71 l0 106 -44 84 c-25 46 -59 120 -76 164 -17 43 -49 111 -71 151 -22 39 -48 98 -59 130 l-20 58 59 -62 c55 -57 151 -222 151 -258 0 -7 26 -32 58 -56 89 -67 322 -250 322 -254 0 -2 -8 -1 -19 2 -14 3 -20 -2 -24 -26 -5 -22 -17 -35 -45 -50 -73 -37 -73 -44 -1 -117 35 -36 87 -77 114 -91 77 -39 113 -70 145 -125 l29 -52 7 29 c7 29 -6 163 -24 245 -6 25 -10 46 -9 47 1 1 62 -45 135 -101 137 -106 212 -155 212 -138 0 6 -154 158 -342 338 -189 181 -422 405 -518 500 -138 135 -199 188 -290 247 -132 86 -246 147 -276 147 -15 0 -34 -20 -66 -67 -25 -38 -72 -97 -104 -133 -33 -36 -70 -81 -83 -100 -14 -19 -35 -46 -47 -58 -13 -13 -28 -40 -35 -60 -36 -111 -153 -293 -223 -350 -12 -9 -39 -57 -60 -107 -76 -180 -237 -434 -286 -454 -44 -17 -87 -20 -103 -8 -8 7 -46 66 -83 132 -65 115 -75 127 -253 301 l-185 182 26 38 c14 22 63 81 108 132 l82 94 24 -49 c13 -26 24 -42 24 -35 0 23 30 12 41 -15 6 -16 20 -68 31 -118 22 -95 33 -125 47 -125 12 0 18 28 55 248 18 106 36 195 39 198 10 10 27 -6 41 -41 8 -18 24 -38 35 -45 18 -9 21 -8 21 12 0 13 -7 32 -15 42 -17 23 -20 118 -5 147 15 28 47 24 54 -6 7 -28 -8 -244 -25 -365 -6 -41 -22 -110 -36 -153 -40 -128 -19 -98 32 45 26 73 52 141 57 152 6 10 21 72 34 138 22 109 26 121 56 146 18 15 51 43 73 63 59 52 96 79 110 79 7 0 20 -19 31 -42 17 -39 174 -218 174 -199 0 30 -37 102 -69 136 -22 22 -49 60 -61 85 -93 187 -248 325 -328 293z m183 -133 c46 -52 82 -97 80 -99 -9 -8 -105 12 -125 27 -76 58 -73 54 -66 116 4 31 12 56 17 54 6 -2 48 -46 94 -98z m-292 -37 c-8 -21 -24 -55 -35 -77 l-20 -39 39 23 c53 32 29 10 -37 -34 -30 -20 -57 -31 -58 -26 -5 14 112 190 125 190 1 0 -5 -17 -14 -37z m927 -203 c0 -5 -2 -10 -4 -10 -3 0 -8 5 -11 10 -3 6 -1 10 4 10 6 0 11 -4 11 -10z m-1050 -13 c0 -2 -17 -19 -37 -38 -34 -31 -31 -21 6 24 12 15 31 23 31 14z m60 -16 c-10 -20 -30 -37 -30 -26 0 11 25 45 33 45 4 0 3 -9 -3 -19z m-189 -137 c-26 -40 -31 -44 -31 -24 0 21 48 85 57 76 2 -2 -10 -25 -26 -52z m1191 12 c-3 -28 -11 -51 -23 -62 -10 -9 -19 -15 -19 -12 0 5 17 57 35 106 8 22 10 13 7 -32z m-11 -232 c-16 -54 -34 -111 -39 -125 -11 -28 -6 -65 11 -87 8 -10 19 -5 50 25 l40 38 -28 -50 c-45 -79 -48 -83 -66 -88 -10 -3 -27 -22 -38 -43 l-21 -39 5 40 c3 22 7 69 9 105 5 67 90 340 102 327 2 -2 -9 -48 -25 -103z m-1736 24 c33 -11 79 -31 102 -44 23 -13 48 -24 57 -24 8 0 18 -5 21 -11 12 -18 -2 -21 -27 -6 -12 9 -59 23 -103 32 -108 21 -148 34 -162 53 -31 38 -6 38 112 0z m-25 -118 c15 -37 58 -74 105 -91 19 -7 35 -16 35 -20 0 -4 7 -15 16 -23 8 -9 11 -16 5 -16 -5 0 -12 4 -15 9 -3 5 -38 28 -77 51 -71 43 -129 93 -129 111 0 5 11 9 24 9 17 0 27 -9 36 -30z m-576 -75 c28 -18 64 -48 81 -65 28 -29 25 -28 -50 15 -44 25 -89 48 -100 51 -20 7 -35 22 -35 38 0 15 52 -4 104 -39z m906 -27 c15 -21 17 -28 6 -19 -16 13 -41 51 -33 51 2 0 14 -15 27 -32z m-1031 -43 c0 -5 -4 -3 -9 5 -5 8 -9 22 -9 30 0 16 17 -16 18 -35z m-54 -54 c-45 -90 -39 -60 13 69 5 13 7 12 10 -2 2 -9 -8 -39 -23 -67z m-835 -72 c25 -50 66 -177 58 -184 -2 -1 -31 63 -65 144 -59 139 -56 160 7 40z m1988 -25 c-17 -37 -23 -68 -23 -124 1 -67 5 -83 38 -148 21 -41 43 -85 48 -99 8 -22 7 -24 -5 -14 -27 23 -116 211 -116 246 0 19 14 68 30 110 17 42 30 83 30 93 1 16 1 16 10 1 7 -12 3 -31 -12 -65z m1294 -84 c-23 -90 -27 -100 -30 -67 -3 34 44 185 53 175 2 -2 -8 -51 -23 -108z m1105 -3 c105 -107 79 -94 -43 22 -55 52 -85 85 -67 75 18 -10 67 -54 110 -97z m-2303 -67 l7 -25 -14 25 c-8 14 -17 39 -20 55 l-6 30 13 -30 c8 -16 16 -41 20 -55z m385 -221 c-21 -30 -23 -31 -36 -13 -12 17 -11 20 19 31 18 6 34 12 36 12 2 1 -7 -13 -19 -30z m-3450 -242 c-20 -18 -69 -61 -110 -97 l-74 -65 50 59 c42 48 147 135 165 135 3 0 -11 -14 -31 -32z"/>
<path d="M5733 5668 c4 -24 2 -26 -16 -16 -19 10 -20 8 -13 -33 4 -24 9 -70 13 -101 l6 -58 -67 -63 -66 -64 0 -111 c0 -62 -3 -112 -8 -112 -4 0 -17 7 -30 15 -21 15 -22 15 -16 -13 3 -16 -6 -89 -20 -161 -14 -72 -26 -144 -26 -160 0 -16 17 -54 42 -90 44 -67 45 -92 0 -99 -27 -4 -35 -28 -15 -47 30 -30 103 9 103 54 -1 23 -37 100 -66 138 -13 17 -24 40 -24 50 0 10 34 77 75 148 76 132 86 159 61 168 -19 7 -26 43 -12 62 10 14 15 14 46 -7 19 -13 55 -49 81 -81 84 -105 128 -224 130 -352 l1 -70 16 35 c10 24 15 64 15 125 l0 90 -77 125 c-78 127 -106 196 -106 258 0 27 9 43 41 75 22 22 44 48 50 58 15 28 -27 147 -64 182 -18 16 -38 41 -45 56 l-12 26 3 -27z"/>
<path d="M5885 5341 c0 -153 1 -162 22 -183 20 -20 25 -21 38 -8 8 9 17 36 19 60 3 25 5 47 5 50 1 3 30 5 65 6 l64 0 11 -60 c18 -97 29 -190 24 -199 -3 -4 -13 -5 -24 -2 -30 10 -24 -39 9 -77 56 -62 77 -17 61 132 -11 106 -30 196 -56 264 l-19 47 -38 -31 c-21 -16 -41 -30 -43 -30 -2 0 -21 9 -43 20 -32 16 -42 29 -59 77 -12 32 -25 66 -29 77 -4 10 -8 -54 -7 -143z"/>
<path d="M5470 5193 c0 -13 29 -38 35 -31 3 3 -4 13 -15 23 -11 10 -20 13 -20 8z"/>
</g>
</svg>